<svg width="244" height="53" viewBox="0 0 244 53" fill="none" xmlns="http://www.w3.org/2000/svg">
<path d="M24.9466 19.043L24.9466 15.6827L42.2402 15.6827V12.4752" stroke="white" stroke-linecap="round" stroke-linejoin="round"/>
<path d="M12.7109 45.381H22.1978V35.5039" stroke="white" stroke-linecap="round" stroke-linejoin="round"/>
<path d="M6.82295 21.4189L6.82295 27.6473L16.7002 27.6473" stroke="white" stroke-linecap="round" stroke-linejoin="round"/>
<path d="M46.7545 34.0957L46.7545 27.7316L33.6357 27.7316" stroke="white" stroke-linecap="round" stroke-linejoin="round"/>
<path d="M9.802 21.1646C9.802 21.7169 9.35428 22.1646 8.802 22.1646H4.84138C4.28909 22.1646 3.84138 21.7169 3.84138 21.1646V20.443C3.84138 19.9743 4.22129 19.5944 4.68994 19.5944C5.15859 19.5944 5.5385 19.2145 5.5385 18.7459V10.1893C5.5385 9.63704 5.09078 9.18932 4.5385 9.18932H3.59958C3.0473 9.18932 2.59958 9.63704 2.59958 10.1893V10.2621C2.59958 10.8143 2.15187 11.262 1.59958 11.262H1.0332C0.480919 11.262 0.0332031 10.8143 0.0332031 10.262V7.61914C0.0332031 7.06686 0.480918 6.61914 1.0332 6.61914H12.6102C13.1625 6.61914 13.6102 7.06686 13.6102 7.61914V10.262C13.6102 10.8143 13.1625 11.262 12.6102 11.262H12.0438C11.4915 11.262 11.0438 10.8143 11.0438 10.262V10.1893C11.0438 9.63704 10.5961 9.18932 10.0438 9.18932H9.10488C8.55259 9.18932 8.10488 9.63704 8.10488 10.1893V18.7459C8.10488 19.2145 8.48479 19.5944 8.95344 19.5944C9.42209 19.5944 9.802 19.9743 9.802 20.443V21.1646Z" fill="url(#paint0_linear_158_27)"/>
<path d="M38.7271 3.6318C38.7271 4.43786 38.0737 5.09131 37.2676 5.09131C36.4615 5.09131 35.8081 4.43786 35.8081 3.6318C35.8081 2.82573 36.4615 2.17229 37.2676 2.17229C38.0737 2.17229 38.7271 2.82573 38.7271 3.6318Z" fill="url(#paint1_linear_158_27)"/>
<path fill-rule="evenodd" clip-rule="evenodd" d="M51.0143 9.23961C51.0143 9.57166 51.0143 9.44467 51.0143 9.80705V10.9633C51.0143 11.4279 50.8612 11.8567 50.6029 12.2022L50.585 12.2257C50.2064 12.7171 49.6121 13.0337 48.9438 13.0337H35.7062C34.9727 13.0337 34.3283 12.6523 33.9605 12.077L33.9432 12.0494C33.7482 11.7337 33.6357 11.3616 33.6357 10.9633C33.6357 10.8467 33.6357 10.8445 33.6357 10.7805L33.6357 2.07046C33.6357 0.926976 34.5627 0 35.7062 0H48.9438C50.0873 0 51.0143 0.926976 51.0143 2.07046V9.23961ZM37.8528 6.61632L35.0953 9.33925V2.07046C35.0953 1.73304 35.3688 1.45951 35.7062 1.45951H48.9438C49.2812 1.45951 49.5547 1.73304 49.5547 2.07046V7.79857L45.8416 4.13238C45.3131 3.61204 44.4636 3.61073 43.9351 4.13102L41.4179 6.61637L40.5266 7.49639L39.6354 6.61632C39.1416 6.13031 38.3464 6.1302 37.8528 6.61632Z" fill="url(#paint2_linear_158_27)"/>
<path fill-rule="evenodd" clip-rule="evenodd" d="M35.0953 9.33925L37.8528 6.61632C38.3464 6.1302 39.1416 6.13031 39.6354 6.61632L40.5266 7.49639L41.4179 6.61637L43.9351 4.13102C44.4636 3.61073 45.3131 3.61204 45.8416 4.13238L49.5547 7.79857V2.07046C49.5547 1.73304 49.2812 1.45951 48.9438 1.45951H35.7062C35.3688 1.45951 35.0953 1.73304 35.0953 2.07046V9.33925ZM38.7271 3.6318C38.7271 4.43786 38.0737 5.09131 37.2676 5.09131C36.4615 5.09131 35.8081 4.43786 35.8081 3.6318C35.8081 2.82573 36.4615 2.17229 37.2676 2.17229C38.0737 2.17229 38.7271 2.82573 38.7271 3.6318Z" fill="white"/>
<path fill-rule="evenodd" clip-rule="evenodd" d="M1.3439 38.0001H12.6128C13.3573 38.0083 14 38.7543 14 39.5V42.0001H0V39.3577C0 38.6125 0.600419 38.0075 1.3439 38.0001Z" fill="#D9D9D9"/>
<path fill-rule="evenodd" clip-rule="evenodd" d="M14 49.6423C14 50.3921 13.3921 51 12.6423 51H1.3577C0.607862 51 0 50.3921 0 49.6423V42.0001H14V49.6423ZM5.83952 43.5447C5.45512 43.3383 4.98954 43.6168 4.98954 44.0531V47.591C4.98954 48.0273 5.45512 48.3058 5.83952 48.0994L9.13409 46.3304C9.5395 46.1127 9.5395 45.5314 9.13409 45.3137L5.83952 43.5447Z" fill="url(#paint3_linear_158_27)"/>
<path d="M4.73851 41H0V39.3577C0 38.6125 0.600419 38.0075 1.3439 38.0001C1.34849 38 1.35309 38 1.3577 38H1.55807L4.73851 41Z" fill="url(#paint4_linear_158_27)"/>
<path d="M5.62944 38L8.80988 41H6.5665L3.38605 38H5.62944Z" fill="url(#paint5_linear_158_27)"/>
<path d="M12.6003 38C12.6045 38 12.6086 38 12.6128 38.0001C13.3573 38.0083 14 38.7543 14 39.5V41H10.6379L7.45742 38L12.6003 38Z" fill="url(#paint6_linear_158_27)"/>
<path fill-rule="evenodd" clip-rule="evenodd" d="M4.98954 44.0531C4.98954 43.6168 5.45512 43.3383 5.83952 43.5447L9.13409 45.3137C9.5395 45.5314 9.5395 46.1127 9.13409 46.3304L5.83952 48.0994C5.45512 48.3058 4.98954 48.0273 4.98954 47.591V44.0531Z" fill="#C26FFA"/>
<path d="M51.2937 32.9314C51.6841 32.8758 52.0333 33.1784 52.0333 33.5723V43.8754H52.0329C52.0331 43.8901 52.0333 43.9048 52.0333 43.9196C52.0333 45.4228 50.8134 46.6415 49.3085 46.6415C47.8037 46.6415 46.5838 45.4228 46.5838 43.9196C46.5838 42.4163 47.8037 41.1977 49.3085 41.1977C49.8079 41.1977 50.2758 41.3319 50.6783 41.5662V37.1001L42.5482 38.2919V45.2879H42.5481C42.5402 46.7844 41.3233 47.9951 39.8234 47.9951C38.3186 47.9951 37.0986 46.7764 37.0986 45.2732C37.0986 43.7699 38.3186 42.5513 39.8234 42.5513C40.3228 42.5513 40.7907 42.6855 41.1931 42.9198V34.9324C41.1932 34.6102 41.4304 34.3371 41.7497 34.2916L51.2937 32.9314Z" fill="url(#paint7_linear_158_27)"/>
<path fill-rule="evenodd" clip-rule="evenodd" d="M24.9481 36.4213C27.5198 36.4213 29.8306 35.304 31.4216 33.5284C31.6478 33.2759 31.8595 33.0101 32.0554 32.7323C33.052 31.3183 33.6373 29.5936 33.6373 27.7321C33.6373 25.8805 33.0581 24.164 32.071 22.7542C31.8761 22.4758 31.6652 22.2094 31.4398 21.9563C29.8483 20.1688 27.5297 19.043 24.9481 19.043C22.3664 19.043 20.0478 20.1688 18.4563 21.9563C18.2309 22.2094 18.02 22.4758 17.8251 22.7542C16.838 24.164 16.2588 25.8805 16.2588 27.7321C16.2588 29.5936 16.8441 31.3183 17.8407 32.7323C18.0366 33.0101 18.2483 33.2759 18.4745 33.5284C20.0655 35.304 22.3763 36.4213 24.9481 36.4213ZM29.522 27.206C29.4879 26.1212 29.3487 25.0901 29.1237 24.1485C29.8999 23.9238 30.604 23.6384 31.2129 23.3044C32.0036 24.4211 32.5032 25.7585 32.6013 27.206H29.522ZM29.5231 28.2243H32.6035C32.5104 29.6955 32.0025 31.054 31.1955 32.1844C30.5886 31.8533 29.8879 31.5704 29.116 31.3475C29.348 30.3876 29.4904 29.3337 29.5231 28.2243ZM24.4813 35.3247C23.8809 35.1269 23.2091 34.5399 22.6086 33.4013C22.4011 33.0078 22.2135 32.5665 22.0509 32.085C22.8052 31.9331 23.6218 31.8376 24.4813 31.8121V35.3247ZM27.2875 22.0629C26.7151 20.9777 26.078 20.3936 25.4996 20.1699V23.6834C26.3321 23.6541 27.1234 23.5592 27.8559 23.4111C27.6909 22.9172 27.4995 22.4651 27.2875 22.0629ZM24.4813 20.1395V23.6861C23.6178 23.6605 22.7975 23.5642 22.0402 23.4111C22.2052 22.9172 22.3966 22.4651 22.6086 22.0629C23.2091 20.9243 23.8809 20.3373 24.4813 20.1395ZM28.1352 24.3932C27.3109 24.5647 26.4249 24.6716 25.4996 24.7022V27.206H28.5032C28.4694 26.198 28.3394 25.2499 28.1352 24.3932ZM28.1274 31.1033C28.3384 30.2286 28.4719 29.2577 28.5043 28.2243H25.4996V30.796C26.422 30.8265 27.3053 30.9328 28.1274 31.1033ZM24.4813 30.7934V28.2243H21.3918C21.4242 29.2577 21.5577 30.2286 21.7687 31.1033C22.616 30.9276 23.5283 30.82 24.4813 30.7934ZM24.4813 27.206V24.7048C23.5254 24.6781 22.6104 24.57 21.7609 24.3932C21.5567 25.2499 21.4267 26.198 21.3929 27.206H24.4813ZM20.7801 31.3475C20.5481 30.3876 20.4057 29.3337 20.373 28.2243H17.2926C17.3858 29.6955 17.8936 31.054 18.7006 32.1844C19.3075 31.8533 20.0082 31.5704 20.7801 31.3475ZM20.7724 24.1485C20.5474 25.0901 20.4083 26.1212 20.3741 27.206H17.2948C17.3929 25.7585 17.8925 24.4211 18.6832 23.3044C19.2922 23.6384 19.9962 23.9238 20.7724 24.1485ZM27.4801 34.9753C28.6555 34.5644 29.7004 33.8756 30.536 32.9875C30.0383 32.7327 29.4675 32.5092 28.8379 32.3271C28.4902 33.3831 28.0263 34.2873 27.4801 34.9753ZM27.2875 33.4013C27.495 33.0078 27.6826 32.5665 27.8452 32.085C27.1158 31.9381 26.328 31.844 25.4996 31.8148V35.2943C26.078 35.0707 26.7151 34.4866 27.2875 33.4013ZM21.0582 32.3271C20.4286 32.5092 19.8578 32.7327 19.3601 32.9875C20.1957 33.8756 21.2406 34.5644 22.416 34.9753C21.8698 34.2873 21.4059 33.3831 21.0582 32.3271ZM30.5575 22.4997C30.0574 22.7577 29.4826 22.984 28.848 23.1682C28.4993 22.0989 28.0317 21.1837 27.4801 20.489C28.6656 20.9034 29.7184 21.6006 30.5575 22.4997ZM19.3386 22.4997C20.1777 21.6006 21.2305 20.9033 22.416 20.489C21.8644 21.1837 21.3968 22.0989 21.0481 23.1682C20.4134 22.984 19.8387 22.7577 19.3386 22.4997Z" fill="#1070CA"/>
<path fill-rule="evenodd" clip-rule="evenodd" d="M20.3741 27.206C20.4083 26.1212 20.5474 25.0901 20.7724 24.1485C19.9962 23.9238 19.2922 23.6384 18.6832 23.3044C17.8925 24.4211 17.3929 25.7585 17.2948 27.206H20.3741Z" fill="white"/>
<path fill-rule="evenodd" clip-rule="evenodd" d="M24.4813 24.7048V27.206H21.3929C21.4267 26.198 21.5567 25.2499 21.7609 24.3932C22.6104 24.57 23.5254 24.6781 24.4813 24.7048Z" fill="white"/>
<path fill-rule="evenodd" clip-rule="evenodd" d="M22.416 20.489C21.2305 20.9033 20.1777 21.6006 19.3386 22.4997C19.8387 22.7577 20.4134 22.984 21.0481 23.1682C21.3968 22.0989 21.8644 21.1837 22.416 20.489Z" fill="white"/>
<path fill-rule="evenodd" clip-rule="evenodd" d="M24.4813 23.6861V20.1395C23.8809 20.3373 23.2091 20.9243 22.6086 22.0629C22.3966 22.4651 22.2052 22.9172 22.0402 23.4111C22.7975 23.5642 23.6178 23.6605 24.4813 23.6861Z" fill="white"/>
<path fill-rule="evenodd" clip-rule="evenodd" d="M25.4996 20.1699C26.078 20.3936 26.7151 20.9777 27.2875 22.0629C27.4995 22.4651 27.6909 22.9172 27.8559 23.4111C27.1234 23.5592 26.3321 23.6541 25.4996 23.6834V20.1699Z" fill="white"/>
<path fill-rule="evenodd" clip-rule="evenodd" d="M25.4996 24.7022C26.4249 24.6716 27.3109 24.5647 28.1352 24.3932C28.3394 25.2499 28.4694 26.198 28.5032 27.206H25.4996V24.7022Z" fill="white"/>
<path fill-rule="evenodd" clip-rule="evenodd" d="M29.1237 24.1485C29.3487 25.0901 29.4879 26.1212 29.522 27.206H32.6013C32.5032 25.7585 32.0036 24.4211 31.2129 23.3044C30.604 23.6384 29.8999 23.9238 29.1237 24.1485Z" fill="white"/>
<path fill-rule="evenodd" clip-rule="evenodd" d="M28.848 23.1682C29.4826 22.984 30.0574 22.7577 30.5575 22.4997C29.7184 21.6006 28.6656 20.9034 27.4801 20.489C28.0317 21.1837 28.4993 22.0989 28.848 23.1682Z" fill="white"/>
<path fill-rule="evenodd" clip-rule="evenodd" d="M32.6035 28.2243H29.5231C29.4904 29.3337 29.348 30.3876 29.116 31.3475C29.8879 31.5704 30.5886 31.8533 31.1955 32.1844C32.0025 31.054 32.5104 29.6955 32.6035 28.2243Z" fill="white"/>
<path fill-rule="evenodd" clip-rule="evenodd" d="M30.536 32.9875C29.7004 33.8756 28.6555 34.5644 27.4801 34.9753C28.0263 34.2873 28.4902 33.3831 28.8379 32.3271C29.4675 32.5092 30.0383 32.7327 30.536 32.9875Z" fill="white"/>
<path fill-rule="evenodd" clip-rule="evenodd" d="M28.5043 28.2243C28.4719 29.2577 28.3384 30.2286 28.1274 31.1033C27.3053 30.9328 26.422 30.8265 25.4996 30.796V28.2243H28.5043Z" fill="white"/>
<path fill-rule="evenodd" clip-rule="evenodd" d="M27.8452 32.085C27.6826 32.5665 27.495 33.0078 27.2875 33.4013C26.7151 34.4866 26.078 35.0707 25.4996 35.2943V31.8148C26.328 31.844 27.1158 31.9381 27.8452 32.085Z" fill="white"/>
<path fill-rule="evenodd" clip-rule="evenodd" d="M24.4813 28.2243V30.7934C23.5283 30.82 22.616 30.9276 21.7687 31.1033C21.5577 30.2286 21.4242 29.2577 21.3918 28.2243H24.4813Z" fill="white"/>
<path fill-rule="evenodd" clip-rule="evenodd" d="M22.6086 33.4013C23.2091 34.5399 23.8809 35.1269 24.4813 35.3247V31.8121C23.6218 31.8376 22.8052 31.9331 22.0509 32.085C22.2135 32.5665 22.4011 33.0078 22.6086 33.4013Z" fill="white"/>
<path fill-rule="evenodd" clip-rule="evenodd" d="M19.3601 32.9875C19.8578 32.7327 20.4286 32.5092 21.0582 32.3271C21.4059 33.3831 21.8698 34.2873 22.416 34.9753C21.2406 34.5644 20.1957 33.8756 19.3601 32.9875Z" fill="white"/>
<path fill-rule="evenodd" clip-rule="evenodd" d="M20.373 28.2243C20.4057 29.3337 20.5481 30.3876 20.7801 31.3475C20.0082 31.5704 19.3075 31.8533 18.7006 32.1844C17.8936 31.054 17.3858 29.6955 17.2926 28.2243H20.373Z" fill="white"/>
<g filter="url(#filter0_d_158_27)">
<path d="M72.5942 12.76L70.3542 16.76H68.1142L65.8742 12.76V19H62.9942V7.8H66.0342L69.2342 13.72L72.4342 7.8H75.4742V19H72.5942V12.76ZM81.3204 16.84C81.8858 16.84 82.5258 16.7333 83.2404 16.52V10.52H86.0404V19H83.5604L83.4004 18.2C82.8991 18.5307 82.3818 18.776 81.8484 18.936C81.3258 19.0853 80.8831 19.16 80.5204 19.16H79.8004C79.0751 19.16 78.4938 18.9413 78.0564 18.504C77.6191 18.0667 77.4004 17.4853 77.4004 16.76V10.52H80.2004V16.28C80.2004 16.44 80.2538 16.5733 80.3604 16.68C80.4671 16.7867 80.6004 16.84 80.7604 16.84H81.3204ZM92.1148 19C91.4001 19.1067 90.7175 19.16 90.0668 19.16C89.4268 19.16 88.8881 18.9413 88.4508 18.504C88.0135 18.0667 87.7948 17.4853 87.7948 16.76V7.8H90.5948V16.36C90.5948 16.52 90.6481 16.6533 90.7548 16.76C90.8615 16.8667 90.9948 16.92 91.1548 16.92H92.1148V19ZM98.9998 19C97.9651 19.1067 96.9518 19.16 95.9598 19.16C95.2345 19.16 94.6531 18.9413 94.2158 18.504C93.7785 18.0667 93.5598 17.4853 93.5598 16.76V12.68H92.5998V10.52H93.5598L93.8798 8.6H96.3598V10.52H98.3598V12.68H96.3598V16.36C96.3598 16.52 96.4131 16.6533 96.5198 16.76C96.6265 16.8667 96.7598 16.92 96.9198 16.92H98.9998V19ZM103.494 10.84V19H100.694V13H99.4942V10.84H103.494ZM100.694 7.64H103.494V9.88H100.694V7.64ZM110.939 10.36C111.803 10.36 112.47 10.68 112.939 11.32C113.43 10.9893 113.958 10.7493 114.523 10.6C115.099 10.44 115.611 10.36 116.059 10.36H116.219C116.945 10.36 117.526 10.5787 117.963 11.016C118.401 11.4533 118.619 12.0347 118.619 12.76V19H115.819V13.24C115.819 13.08 115.766 12.9467 115.659 12.84C115.553 12.7333 115.419 12.68 115.259 12.68H115.179C114.699 12.68 114.086 12.7867 113.339 13V19H110.539V13.24C110.539 13.08 110.486 12.9467 110.379 12.84C110.273 12.7333 110.139 12.68 109.979 12.68H109.899C109.419 12.68 108.806 12.7867 108.059 13V19H105.259V10.52H107.739L107.899 11.32C108.401 10.9893 108.913 10.7493 109.435 10.6C109.969 10.44 110.417 10.36 110.779 10.36H110.939ZM123.496 12.36C123.069 12.36 122.856 12.5733 122.856 13V13.88H125.576V13C125.576 12.5733 125.363 12.36 124.936 12.36H123.496ZM128.056 18.84C125.997 19.0533 124.131 19.16 122.456 19.16C121.731 19.16 121.149 18.9413 120.712 18.504C120.275 18.0667 120.056 17.4853 120.056 16.76V12.92C120.056 12.12 120.28 11.496 120.728 11.048C121.187 10.5893 121.816 10.36 122.616 10.36H125.816C126.616 10.36 127.24 10.5893 127.688 11.048C128.147 11.496 128.376 12.12 128.376 12.92V15.88H122.856V16.52C122.856 16.68 122.909 16.8133 123.016 16.92C123.123 17.0267 123.256 17.08 123.416 17.08C124.472 17.08 126.019 17 128.056 16.84V18.84ZM135.97 19L135.81 18.2C135.308 18.5307 134.791 18.776 134.258 18.936C133.735 19.0853 133.292 19.16 132.93 19.16H132.21C131.484 19.16 130.903 18.9413 130.466 18.504C130.028 18.0667 129.81 17.4853 129.81 16.76V13.08C129.81 12.28 130.034 11.656 130.482 11.208C130.94 10.7493 131.57 10.52 132.37 10.52H135.65V7.8H138.45V19H135.97ZM133.73 16.84C134.295 16.84 134.935 16.7333 135.65 16.52V12.68H133.25C132.823 12.68 132.61 12.8933 132.61 13.32V16.28C132.61 16.44 132.663 16.5733 132.77 16.68C132.876 16.7867 133.01 16.84 133.17 16.84H133.73ZM143.728 10.84V19H140.928V13H139.728V10.84H143.728ZM140.928 7.64H143.728V9.88H140.928V7.64ZM148.853 16.92C149.418 16.92 150.058 16.8133 150.773 16.6V15.64H148.453C148.293 15.64 148.16 15.6933 148.053 15.8C147.946 15.9067 147.893 16.04 147.893 16.2V16.36C147.893 16.52 147.946 16.6533 148.053 16.76C148.16 16.8667 148.293 16.92 148.453 16.92H148.853ZM145.893 10.68C147.845 10.4667 149.605 10.36 151.173 10.36C151.898 10.36 152.48 10.5787 152.917 11.016C153.354 11.4533 153.573 12.0347 153.573 12.76V19H151.093L150.933 18.2C150.432 18.5307 149.914 18.776 149.381 18.936C148.858 19.0853 148.416 19.16 148.053 19.16H147.493C146.768 19.16 146.186 18.9413 145.749 18.504C145.312 18.0667 145.093 17.4853 145.093 16.76V16.04C145.093 15.3147 145.312 14.7333 145.749 14.296C146.186 13.8587 146.768 13.64 147.493 13.64H150.773V13C150.773 12.84 150.72 12.7067 150.613 12.6C150.506 12.4933 150.373 12.44 150.213 12.44C149.52 12.44 148.752 12.472 147.909 12.536C147.077 12.6 146.405 12.648 145.893 12.68V10.68ZM159.949 16.68C162.872 16.84 164.851 16.92 165.885 16.92C166.131 16.92 166.323 16.8507 166.461 16.712C166.611 16.5627 166.685 16.3653 166.685 16.12V14.68H163.005C161.885 14.68 161.069 14.4293 160.557 13.928C160.056 13.416 159.805 12.6 159.805 11.48V11C159.805 9.88 160.056 9.06933 160.557 8.568C161.069 8.056 161.885 7.8 163.005 7.8H168.621V10.04H163.645C163.005 10.04 162.685 10.36 162.685 11V11.32C162.685 11.96 163.005 12.28 163.645 12.28H166.525C167.571 12.28 168.339 12.5253 168.829 13.016C169.32 13.5067 169.565 14.2747 169.565 15.32V16.12C169.565 17.1653 169.32 17.9333 168.829 18.424C168.339 18.9147 167.571 19.16 166.525 19.16C165.981 19.16 165.405 19.1493 164.797 19.128L163.325 19.064C162.237 19.0107 161.112 18.936 159.949 18.84V16.68ZM173.244 21.88C172.679 21.88 171.986 21.8267 171.164 21.72V19.64H172.604C173.01 19.64 173.271 19.528 173.388 19.304C173.516 19.08 173.495 18.7653 173.324 18.36L170.044 10.52H173.004L175.004 15.96L176.684 10.52H179.644L176.444 19.32C176.135 20.1627 175.735 20.7973 175.244 21.224C174.754 21.6613 174.087 21.88 173.244 21.88ZM179.969 16.76C182.135 16.92 183.841 17 185.089 17C185.249 17 185.383 16.9467 185.489 16.84C185.596 16.7333 185.649 16.6 185.649 16.44V15.88H182.209C181.484 15.88 180.903 15.6613 180.465 15.224C180.028 14.7867 179.809 14.2053 179.809 13.48V12.92C179.809 12.1947 180.028 11.6133 180.465 11.176C180.903 10.7387 181.484 10.52 182.209 10.52H187.649V12.6H183.169C183.009 12.6 182.876 12.6533 182.769 12.76C182.663 12.8667 182.609 13 182.609 13.16C182.609 13.32 182.663 13.4533 182.769 13.56C182.876 13.6667 183.009 13.72 183.169 13.72H186.049C186.775 13.72 187.356 13.9387 187.793 14.376C188.231 14.8133 188.449 15.3947 188.449 16.12V16.76C188.449 17.4853 188.231 18.0667 187.793 18.504C187.356 18.9413 186.775 19.16 186.049 19.16C184.161 19.16 182.135 19.0533 179.969 18.84V16.76ZM195.65 19C194.616 19.1067 193.602 19.16 192.61 19.16C191.885 19.16 191.304 18.9413 190.866 18.504C190.429 18.0667 190.21 17.4853 190.21 16.76V12.68H189.25V10.52H190.21L190.53 8.6H193.01V10.52H195.01V12.68H193.01V16.36C193.01 16.52 193.064 16.6533 193.17 16.76C193.277 16.8667 193.41 16.92 193.57 16.92H195.65V19ZM200.061 12.36C199.634 12.36 199.421 12.5733 199.421 13V13.88H202.141V13C202.141 12.5733 201.928 12.36 201.501 12.36H200.061ZM204.621 18.84C202.562 19.0533 200.696 19.16 199.021 19.16C198.296 19.16 197.714 18.9413 197.277 18.504C196.84 18.0667 196.621 17.4853 196.621 16.76V12.92C196.621 12.12 196.845 11.496 197.293 11.048C197.752 10.5893 198.381 10.36 199.181 10.36H202.381C203.181 10.36 203.805 10.5893 204.253 11.048C204.712 11.496 204.941 12.12 204.941 12.92V15.88H199.421V16.52C199.421 16.68 199.474 16.8133 199.581 16.92C199.688 17.0267 199.821 17.08 199.981 17.08C201.037 17.08 202.584 17 204.621 16.84V18.84ZM212.215 10.36C213.079 10.36 213.745 10.68 214.215 11.32C214.705 10.9893 215.233 10.7493 215.799 10.6C216.375 10.44 216.887 10.36 217.335 10.36H217.495C218.22 10.36 218.801 10.5787 219.239 11.016C219.676 11.4533 219.895 12.0347 219.895 12.76V19H217.095V13.24C217.095 13.08 217.041 12.9467 216.935 12.84C216.828 12.7333 216.695 12.68 216.535 12.68H216.455C215.975 12.68 215.361 12.7867 214.615 13V19H211.815V13.24C211.815 13.08 211.761 12.9467 211.655 12.84C211.548 12.7333 211.415 12.68 211.255 12.68H211.175C210.695 12.68 210.081 12.7867 209.335 13V19H206.535V10.52H209.015L209.175 11.32C209.676 10.9893 210.188 10.7493 210.711 10.6C211.244 10.44 211.692 10.36 212.055 10.36H212.215ZM221.172 16.76C223.337 16.92 225.044 17 226.292 17C226.452 17 226.585 16.9467 226.692 16.84C226.798 16.7333 226.852 16.6 226.852 16.44V15.88H223.412C222.686 15.88 222.105 15.6613 221.668 15.224C221.23 14.7867 221.012 14.2053 221.012 13.48V12.92C221.012 12.1947 221.23 11.6133 221.668 11.176C222.105 10.7387 222.686 10.52 223.412 10.52H228.852V12.6H224.372C224.212 12.6 224.078 12.6533 223.972 12.76C223.865 12.8667 223.812 13 223.812 13.16C223.812 13.32 223.865 13.4533 223.972 13.56C224.078 13.6667 224.212 13.72 224.372 13.72H227.252C227.977 13.72 228.558 13.9387 228.996 14.376C229.433 14.8133 229.652 15.3947 229.652 16.12V16.76C229.652 17.4853 229.433 18.0667 228.996 18.504C228.558 18.9413 227.977 19.16 227.252 19.16C225.364 19.16 223.337 19.0533 221.172 18.84V16.76ZM71.1222 35.48V43H66.8502C66.0822 43 65.4475 42.9467 64.9462 42.84C64.4555 42.7227 64.0662 42.5307 63.7782 42.264C63.5008 41.9867 63.3088 41.6027 63.2022 41.112C63.0955 40.6213 63.0422 39.9973 63.0422 39.24C63.0422 38.4827 63.0955 37.8587 63.2022 37.368C63.3088 36.8773 63.5008 36.4987 63.7782 36.232C64.0662 35.9547 64.4555 35.7627 64.9462 35.656C65.4475 35.5387 66.0822 35.48 66.8502 35.48H71.1222ZM68.6902 38.2H66.2262C66.0235 38.2 65.8688 38.248 65.7622 38.344C65.6662 38.4293 65.6182 38.5627 65.6182 38.744V39.736C65.6182 39.9173 65.6662 40.056 65.7622 40.152C65.8688 40.2373 66.0235 40.28 66.2262 40.28H68.6902V38.2ZM65.9702 33.64C65.8102 33.64 65.6235 33.5653 65.4102 33.416C65.2075 33.256 65.0315 33.0747 64.8822 32.872C64.7328 32.6587 64.6582 32.4773 64.6582 32.328C64.6582 32.1573 64.7328 31.9707 64.8822 31.768C65.0315 31.5653 65.2075 31.3893 65.4102 31.24C65.6128 31.0907 65.7942 31.016 65.9542 31.016C66.1355 31.016 66.3222 31.0907 66.5142 31.24C66.7168 31.3893 66.8928 31.5653 67.0422 31.768C67.1915 31.96 67.2662 32.1467 67.2662 32.328C67.2662 32.4773 67.1862 32.6587 67.0262 32.872C66.8768 33.0747 66.7008 33.256 66.4982 33.416C66.3062 33.5653 66.1302 33.64 65.9702 33.64ZM68.9462 33.64C68.7862 33.64 68.5995 33.5653 68.3862 33.416C68.1835 33.256 68.0075 33.0747 67.8582 32.872C67.7088 32.6587 67.6342 32.4773 67.6342 32.328C67.6342 32.1573 67.7088 31.9707 67.8582 31.768C68.0075 31.5653 68.1835 31.3893 68.3862 31.24C68.5888 31.0907 68.7702 31.016 68.9302 31.016C69.1115 31.016 69.2982 31.0907 69.4902 31.24C69.6928 31.3893 69.8688 31.5653 70.0182 31.768C70.1675 31.96 70.2422 32.1467 70.2422 32.328C70.2422 32.4773 70.1622 32.6587 70.0022 32.872C69.8528 33.0747 69.6768 33.256 69.4742 33.416C69.2822 33.5653 69.1062 33.64 68.9462 33.64ZM72.7642 43V40.28H77.3402C77.2442 39.8 77.1375 39.4053 77.0202 39.096C76.9135 38.776 76.7855 38.5307 76.6362 38.36C76.4975 38.1787 76.3215 38.0507 76.1082 37.976C75.9055 37.9013 75.6548 37.864 75.3562 37.864C75.0468 37.864 74.7322 37.8853 74.4122 37.928C74.0922 37.96 73.7988 38.008 73.5322 38.072L72.8762 35.432C73.2068 35.3467 73.5908 35.2773 74.0282 35.224C74.4762 35.1707 74.9188 35.144 75.3562 35.144C75.9428 35.144 76.4548 35.1973 76.8922 35.304C77.3295 35.4 77.7135 35.5707 78.0442 35.816C78.3748 36.0507 78.6628 36.3867 78.9082 36.824C79.1642 37.2507 79.3935 37.8 79.5962 38.472C79.8095 39.1333 80.0282 39.9387 80.2522 40.888V43H72.7642ZM88.4136 40.28H90.1096V43H88.4136V40.28ZM81.5336 43V40.28H86.1096C86.0136 39.8 85.9069 39.4053 85.7896 39.096C85.6829 38.776 85.5549 38.5307 85.4056 38.36C85.2669 38.1787 85.0909 38.0507 84.8776 37.976C84.6749 37.9013 84.4242 37.864 84.1256 37.864C83.8162 37.864 83.5016 37.8853 83.1816 37.928C82.8616 37.96 82.5682 38.008 82.3016 38.072L81.6456 35.432C81.9762 35.3467 82.3602 35.2773 82.7976 35.224C83.2456 35.1707 83.6882 35.144 84.1256 35.144C84.7122 35.144 85.2242 35.1973 85.6616 35.304C86.0989 35.4 86.4829 35.5707 86.8136 35.816C87.1442 36.0507 87.4322 36.3867 87.6776 36.824C87.9336 37.2507 88.1629 37.8 88.3656 38.472C88.5789 39.1333 88.7976 39.9387 89.0216 40.888V43H81.5336ZM98.7677 40.28H101.712V43H98.7677V40.28ZM93.4557 37.976C93.4557 38.5307 93.6263 38.9787 93.9677 39.32C94.3197 39.6613 94.8797 39.9067 95.6477 40.056C96.4263 40.2053 97.4663 40.28 98.7677 40.28V43C97.701 43 96.6983 42.8507 95.7597 42.552C94.8317 42.2427 94.0103 41.8213 93.2957 41.288C92.5917 40.744 92.037 40.12 91.6317 39.416C91.237 38.712 91.0397 37.9493 91.0397 37.128C91.0397 36.6907 91.1997 36.3333 91.5197 36.056C91.8503 35.7787 92.3517 35.576 93.0237 35.448C93.7063 35.32 94.5917 35.256 95.6797 35.256C96.7783 35.256 97.6637 35.32 98.3357 35.448C99.0183 35.576 99.5143 35.7787 99.8237 36.056C100.144 36.3333 100.304 36.6907 100.304 37.128C100.304 37.9493 100.106 38.7173 99.7117 39.432C99.317 40.136 98.7677 40.76 98.0637 41.304C97.3597 41.8373 96.5383 42.2533 95.5997 42.552C94.6717 42.8507 93.669 43 92.5917 43V40.28C93.893 40.28 94.9277 40.2053 95.6957 40.056C96.4743 39.9067 97.0343 39.6613 97.3757 39.32C97.717 38.9787 97.8877 38.5307 97.8877 37.976H93.4557ZM89.6317 40.28H92.5917V43H89.6317V40.28ZM106.061 40.28H107.565V43H101.229V40.28H103.645V35.48H106.061V40.28ZM103.389 33.64C103.229 33.64 103.043 33.5653 102.829 33.416C102.627 33.256 102.451 33.0747 102.301 32.872C102.152 32.6587 102.077 32.4773 102.077 32.328C102.077 32.1573 102.152 31.9707 102.301 31.768C102.451 31.5653 102.627 31.3893 102.829 31.24C103.032 31.0907 103.213 31.016 103.373 31.016C103.555 31.016 103.741 31.0907 103.933 31.24C104.136 31.3893 104.312 31.5653 104.461 31.768C104.611 31.96 104.685 32.1467 104.685 32.328C104.685 32.4773 104.605 32.6587 104.445 32.872C104.296 33.0747 104.12 33.256 103.917 33.416C103.725 33.5653 103.549 33.64 103.389 33.64ZM106.365 33.64C106.205 33.64 106.019 33.5653 105.805 33.416C105.603 33.256 105.427 33.0747 105.277 32.872C105.128 32.6587 105.053 32.4773 105.053 32.328C105.053 32.1573 105.128 31.9707 105.277 31.768C105.427 31.5653 105.603 31.3893 105.805 31.24C106.008 31.0907 106.189 31.016 106.349 31.016C106.531 31.016 106.717 31.0907 106.909 31.24C107.112 31.3893 107.288 31.5653 107.437 31.768C107.587 31.96 107.661 32.1467 107.661 32.328C107.661 32.4773 107.581 32.6587 107.421 32.872C107.272 33.0747 107.096 33.256 106.893 33.416C106.701 33.5653 106.525 33.64 106.365 33.64ZM117.348 40.28H118.836V43H117.348V40.28ZM114.036 35.256C114.804 35.256 115.428 35.352 115.908 35.544C116.399 35.7253 116.762 36.0187 116.996 36.424C117.231 36.8187 117.348 37.336 117.348 37.976V43H107.092V40.28H114.932V38.056C114.772 38.024 114.596 38.0027 114.404 37.992C114.212 37.9813 113.988 37.976 113.732 37.976C113.231 37.976 112.719 38.0133 112.196 38.088C111.674 38.152 111.14 38.2533 110.596 38.392L109.652 35.992C110.111 35.8213 110.58 35.6827 111.06 35.576C111.551 35.4587 112.042 35.3787 112.532 35.336C113.034 35.2827 113.535 35.256 114.036 35.256ZM109.988 42.2C109.668 41.8267 109.45 41.3787 109.332 40.856C109.215 40.3227 109.156 39.704 109.156 39C109.156 38.4667 109.199 37.9707 109.284 37.512C109.37 37.0427 109.492 36.536 109.652 35.992L112.164 36.52C111.983 37.0213 111.839 37.4587 111.732 37.832C111.626 38.2053 111.572 38.5947 111.572 39C111.572 39.416 111.588 39.7627 111.62 40.04C111.652 40.3067 111.7 40.5413 111.764 40.744C111.839 40.9467 111.94 41.1547 112.068 41.368L109.988 42.2ZM123.194 43H118.362V40.28H120.778V32.92H123.194V43ZM125.713 43V32.92H128.145V43H125.713ZM145.296 40.28H146.8V43H145.296V40.28ZM145.296 40.28V43H133.232V40.28H145.296ZM142.88 43V38.216C142.506 38.0987 141.866 38.04 140.96 38.04C139.797 38.04 138.917 38.3013 138.32 38.824C137.722 39.336 137.424 40.1093 137.424 41.144H135.008V32.92H137.424V37.592C137.648 37.144 137.984 36.7493 138.432 36.408C138.89 36.0667 139.424 35.8 140.032 35.608C140.64 35.416 141.29 35.32 141.984 35.32C142.837 35.32 143.504 35.4107 143.984 35.592C144.464 35.7627 144.8 36.0613 144.992 36.488C145.194 36.904 145.296 37.4853 145.296 38.232V43H142.88ZM146.314 43V40.28H148.73V35.48H151.146V43H146.314ZM150.554 32.008L151.818 31.672V32.792L148.058 33.8V32.68L148.65 32.52C148.618 32.4027 148.592 32.2853 148.57 32.168C148.549 32.04 148.538 31.8853 148.538 31.704C148.538 31.1493 148.656 30.712 148.89 30.392C149.125 30.0613 149.456 29.816 149.882 29.656C150.309 29.496 150.805 29.3893 151.37 29.336V30.632C151.104 30.6533 150.869 30.6907 150.666 30.744C150.464 30.7973 150.24 30.8667 149.994 30.952V31.704C149.994 31.864 150.037 31.9707 150.122 32.024C150.208 32.0667 150.352 32.0613 150.554 32.008ZM153.665 43V32.92H156.097V40.28H157.585V43H153.665ZM168.991 43C168.191 43 167.535 42.9413 167.023 42.824C166.522 42.696 166.127 42.4827 165.839 42.184C165.562 41.8853 165.37 41.4747 165.263 40.952C165.156 40.4293 165.103 39.7733 165.103 38.984V36.92H167.519V39.432C167.519 39.7733 167.62 40.0027 167.823 40.12C168.036 40.2267 168.33 40.28 168.703 40.28H170.527C170.58 40.0987 170.618 39.896 170.639 39.672C170.66 39.4373 170.671 39.1707 170.671 38.872C170.671 38.3813 170.628 37.8853 170.543 37.384C170.458 36.8827 170.346 36.3707 170.207 35.848L172.623 35.48C172.74 35.8213 172.831 36.1733 172.895 36.536C172.97 36.888 173.018 37.2507 173.039 37.624C173.071 37.9867 173.087 38.3547 173.087 38.728C173.087 39.848 172.938 40.7173 172.639 41.336C172.34 41.9547 171.882 42.3867 171.263 42.632C170.655 42.8773 169.898 43 168.991 43ZM163.199 43H161.935V40.28H163.903C164.287 40.28 164.58 40.2267 164.783 40.12C164.996 40.0027 165.103 39.7733 165.103 39.432V36.92H167.519V38.984C167.519 39.7733 167.46 40.4293 167.343 40.952C167.236 41.4747 167.028 41.8853 166.719 42.184C166.42 42.4827 165.988 42.696 165.423 42.824C164.858 42.9413 164.116 43 163.199 43ZM161.935 43H157.103V40.28H159.519V36.92H161.935V43ZM181.997 40.28H184.701V43H181.997V40.28ZM178.589 43C177.992 43 177.474 42.9253 177.037 42.776C176.61 42.6267 176.258 42.392 175.981 42.072C175.714 41.752 175.517 41.3413 175.389 40.84C175.261 40.328 175.197 39.72 175.197 39.016C175.197 38.3547 175.272 37.784 175.421 37.304C175.581 36.824 175.826 36.4347 176.157 36.136C176.488 35.8373 176.909 35.6187 177.421 35.48C177.944 35.3307 178.557 35.256 179.261 35.256C180.072 35.256 180.765 35.304 181.341 35.4C181.928 35.4853 182.498 35.6453 183.053 35.88V40.28L181.709 43H178.589ZM179.997 40.28C180.232 40.28 180.397 40.2373 180.493 40.152C180.589 40.056 180.637 39.8853 180.637 39.64V37.976H178.685C178.333 37.976 178.093 38.0187 177.965 38.104C177.837 38.1893 177.773 38.36 177.773 38.616V40.28H179.997ZM179.501 47.496L177.869 45.704C178.285 45.3627 178.658 44.9733 178.989 44.536C179.33 44.0987 179.624 43.64 179.869 43.16C180.114 42.68 180.301 42.1947 180.429 41.704C180.568 41.2133 180.637 40.7387 180.637 40.28H183.053C183.053 40.9093 182.968 41.5493 182.797 42.2C182.626 42.8507 182.386 43.4853 182.077 44.104C181.768 44.7333 181.394 45.336 180.957 45.912C180.52 46.488 180.034 47.016 179.501 47.496ZM189.052 43H184.22V40.28H186.636V32.92H189.052V43ZM191.571 43V32.92H194.003V43H191.571ZM208.706 40.28H210.194V43H208.706V40.28ZM199.346 48.344C199.228 47.9493 199.127 47.544 199.042 47.128C198.956 46.712 198.892 46.2853 198.85 45.848C198.818 45.4107 198.802 44.9733 198.802 44.536C198.802 43.544 198.898 42.7387 199.09 42.12C199.282 41.4907 199.575 41.0267 199.97 40.728C200.364 40.4293 200.876 40.28 201.506 40.28H206.29V38.056C206.034 38.0027 205.634 37.976 205.09 37.976C204.61 37.976 204.108 38.008 203.586 38.072C203.074 38.136 202.53 38.2427 201.954 38.392L201.01 35.992C201.692 35.7467 202.402 35.5653 203.138 35.448C203.874 35.32 204.626 35.256 205.394 35.256C206.162 35.256 206.786 35.352 207.266 35.544C207.756 35.7253 208.119 36.0187 208.354 36.424C208.588 36.8187 208.706 37.336 208.706 37.976V43H201.442C201.367 43.2667 201.314 43.5653 201.282 43.896C201.25 44.2373 201.234 44.648 201.234 45.128C201.234 45.4907 201.266 45.88 201.33 46.296C201.404 46.7227 201.538 47.2773 201.73 47.96L199.346 48.344ZM201.346 42.2C201.026 41.8267 200.807 41.3787 200.69 40.856C200.572 40.3227 200.514 39.704 200.514 39C200.514 38.4667 200.556 37.9707 200.642 37.512C200.727 37.0427 200.85 36.536 201.01 35.992L203.522 36.52C203.34 37.0213 203.196 37.4587 203.09 37.832C202.983 38.2053 202.93 38.5947 202.93 39C202.93 39.416 202.946 39.7627 202.978 40.04C203.01 40.3067 203.058 40.5413 203.122 40.744C203.196 40.9467 203.298 41.1547 203.426 41.368L201.346 42.2ZM223.927 40.28V43H209.719V40.28H223.927ZM220.007 43V38.216C219.634 38.0987 218.994 38.04 218.087 38.04C216.925 38.04 216.045 38.3013 215.447 38.824C214.85 39.336 214.551 40.1093 214.551 41.144H212.135V32.92H214.551V37.592C214.775 37.144 215.111 36.7493 215.559 36.408C216.018 36.0667 216.551 35.8 217.159 35.608C217.767 35.416 218.418 35.32 219.111 35.32C219.965 35.32 220.631 35.4107 221.111 35.592C221.591 35.7627 221.927 36.0613 222.119 36.488C222.322 36.904 222.423 37.4853 222.423 38.232V43H220.007ZM219.047 33.64C218.887 33.64 218.701 33.5653 218.487 33.416C218.285 33.256 218.109 33.0747 217.959 32.872C217.81 32.6587 217.735 32.4773 217.735 32.328C217.735 32.1573 217.81 31.9707 217.959 31.768C218.109 31.5653 218.285 31.3893 218.487 31.24C218.69 31.0907 218.871 31.016 219.031 31.016C219.213 31.016 219.399 31.0907 219.591 31.24C219.794 31.3893 219.97 31.5653 220.119 31.768C220.269 31.96 220.343 32.1467 220.343 32.328C220.343 32.4773 220.263 32.6587 220.103 32.872C219.954 33.0747 219.778 33.256 219.575 33.416C219.383 33.5653 219.207 33.64 219.047 33.64ZM223.442 43V40.28H225.858V35.48H228.274V43H223.442ZM227.074 33.64C226.914 33.64 226.727 33.5653 226.514 33.416C226.311 33.256 226.135 33.0747 225.986 32.872C225.836 32.6587 225.762 32.4773 225.762 32.328C225.762 32.1573 225.836 31.9707 225.986 31.768C226.135 31.5653 226.311 31.3893 226.514 31.24C226.716 31.0907 226.898 31.016 227.058 31.016C227.239 31.016 227.426 31.0907 227.618 31.24C227.82 31.3893 227.996 31.5653 228.146 31.768C228.295 31.96 228.37 32.1467 228.37 32.328C228.37 32.4773 228.29 32.6587 228.13 32.872C227.98 33.0747 227.804 33.256 227.602 33.416C227.41 33.5653 227.234 33.64 227.074 33.64Z" fill="white"/>
</g>
<defs>
<filter id="filter0_d_158_27" x="62.1941" y="7.63965" width="170.257" height="44.5041" filterUnits="userSpaceOnUse" color-interpolation-filters="sRGB">
<feFlood flood-opacity="0" result="BackgroundImageFix"/>
<feColorMatrix in="SourceAlpha" type="matrix" values="0 0 0 0 0 0 0 0 0 0 0 0 0 0 0 0 0 0 127 0" result="hardAlpha"/>
<feOffset dx="1" dy="2"/>
<feGaussianBlur stdDeviation="0.9"/>
<feComposite in2="hardAlpha" operator="out"/>
<feColorMatrix type="matrix" values="0 0 0 0 0 0 0 0 0 0 0 0 0 0 0 0 0 0 0.55 0"/>
<feBlend mode="normal" in2="BackgroundImageFix" result="effect1_dropShadow_158_27"/>
<feBlend mode="normal" in="SourceGraphic" in2="effect1_dropShadow_158_27" result="shape"/>
</filter>
<linearGradient id="paint0_linear_158_27" x1="6.82169" y1="6.61914" x2="6.82169" y2="22.1646" gradientUnits="userSpaceOnUse">
<stop stop-color="#DEDEDE"/>
<stop offset="1" stop-color="white"/>
</linearGradient>
<linearGradient id="paint1_linear_158_27" x1="42.325" y1="0" x2="42.325" y2="13.0337" gradientUnits="userSpaceOnUse">
<stop stop-color="#FFCC00"/>
<stop offset="1" stop-color="#FF6A00"/>
</linearGradient>
<linearGradient id="paint2_linear_158_27" x1="42.325" y1="0" x2="42.325" y2="13.0337" gradientUnits="userSpaceOnUse">
<stop stop-color="#424CFF"/>
<stop offset="1" stop-color="#282D99"/>
</linearGradient>
<linearGradient id="paint3_linear_158_27" x1="7" y1="38" x2="7" y2="51" gradientUnits="userSpaceOnUse">
<stop stop-color="#8100D7"/>
<stop offset="1" stop-color="#3F0069"/>
</linearGradient>
<linearGradient id="paint4_linear_158_27" x1="6.82243" y1="37.71" x2="6.82243" y2="51.4225" gradientUnits="userSpaceOnUse">
<stop stop-color="#3A0060"/>
<stop offset="0.331731" stop-color="#1A002B"/>
</linearGradient>
<linearGradient id="paint5_linear_158_27" x1="6.82243" y1="37.71" x2="6.82243" y2="51.4225" gradientUnits="userSpaceOnUse">
<stop stop-color="#3A0060"/>
<stop offset="0.331731" stop-color="#1A002B"/>
</linearGradient>
<linearGradient id="paint6_linear_158_27" x1="6.82243" y1="37.71" x2="6.82243" y2="51.4225" gradientUnits="userSpaceOnUse">
<stop stop-color="#3A0060"/>
<stop offset="0.331731" stop-color="#1A002B"/>
</linearGradient>
<linearGradient id="paint7_linear_158_27" x1="44.566" y1="32.9248" x2="44.566" y2="47.9951" gradientUnits="userSpaceOnUse">
<stop stop-color="#FF0037"/>
<stop offset="1" stop-color="#9E0022" stop-opacity="0.58"/>
</linearGradient>
</defs>
</svg>
