<svg width="244" height="53" viewBox="0 0 244 53" fill="none" xmlns="http://www.w3.org/2000/svg">
<path d="M24.9466 19.832L24.9466 16.4718L42.2402 16.4718V13.2642" stroke="black" stroke-linecap="round" stroke-linejoin="round" stroke-dasharray="85 85"/>
<path d="M12.7109 46.1701H22.1978V36.293" stroke="black" stroke-linecap="round" stroke-linejoin="round" stroke-dasharray="85 85"/>
<path d="M6.82295 22.208L6.82295 28.4364L16.7002 28.4364" stroke="black" stroke-linecap="round" stroke-linejoin="round" stroke-dasharray="85 85"/>
<path d="M46.7545 34.8848L46.7545 28.5206L33.6357 28.5207" stroke="black" stroke-linecap="round" stroke-linejoin="round" stroke-dasharray="85 85"/>
<path d="M9.802 21.9537C9.802 22.5059 9.35428 22.9537 8.802 22.9537H4.84138C4.28909 22.9537 3.84138 22.5059 3.84138 21.9537V21.232C3.84138 20.7634 4.22129 20.3835 4.68994 20.3835C5.15859 20.3835 5.5385 20.0036 5.5385 19.5349V10.9784C5.5385 10.4261 5.09078 9.97838 4.5385 9.97838H3.59958C3.0473 9.97838 2.59958 10.4261 2.59958 10.9784V11.0511C2.59958 11.6034 2.15187 12.0511 1.59958 12.0511H1.0332C0.480919 12.0511 0.0332031 11.6034 0.0332031 11.0511V8.4082C0.0332031 7.85592 0.480918 7.4082 1.0332 7.4082H12.6102C13.1625 7.4082 13.6102 7.85592 13.6102 8.4082V11.0511C13.6102 11.6034 13.1625 12.0511 12.6102 12.0511H12.0438C11.4915 12.0511 11.0438 11.6034 11.0438 11.0511V10.9784C11.0438 10.4261 10.5961 9.97838 10.0438 9.97838H9.10488C8.55259 9.97838 8.10488 10.4261 8.10488 10.9784V19.5349C8.10488 20.0036 8.48479 20.3835 8.95344 20.3835C9.42208 20.3835 9.802 20.7634 9.802 21.232V21.9537Z" fill="url(#paint0_linear_82_49)"/>
<path d="M38.7271 4.42086C38.7271 5.22692 38.0737 5.88037 37.2676 5.88037C36.4615 5.88037 35.8081 5.22692 35.8081 4.42086C35.8081 3.6148 36.4615 2.96135 37.2676 2.96135C38.0737 2.96135 38.7271 3.6148 38.7271 4.42086Z" fill="url(#paint1_linear_82_49)"/>
<path fill-rule="evenodd" clip-rule="evenodd" d="M51.0143 10.0287C51.0143 10.3607 51.0143 10.2337 51.0143 10.5961V11.7523C51.0143 12.2169 50.8612 12.6458 50.6029 12.9912L50.585 13.0148C50.2064 13.5062 49.6121 13.8228 48.9438 13.8228H35.7062C34.9727 13.8228 34.3283 13.4414 33.9605 12.866L33.9432 12.8385C33.7482 12.5227 33.6357 12.1507 33.6357 11.7523C33.6357 11.6357 33.6357 11.6335 33.6357 11.5695L33.6357 2.85953C33.6357 1.71604 34.5627 0.789062 35.7062 0.789062H48.9438C50.0873 0.789062 51.0143 1.71604 51.0143 2.85953V10.0287ZM37.8528 7.40538L35.0953 10.1283V2.85953C35.0953 2.5221 35.3688 2.24857 35.7062 2.24857H48.9438C49.2812 2.24857 49.5547 2.5221 49.5547 2.85953V8.58763L45.8416 4.92145L45.8403 4.92015C45.3118 4.39981 44.4636 4.39979 43.9351 4.92009L43.9337 4.92145L41.4179 7.40543L40.5266 8.28545L39.6354 7.40538L39.6339 7.40395C39.1402 6.91794 38.3477 6.918 37.8541 7.40412L37.8528 7.40538Z" fill="url(#paint2_linear_82_49)"/>
<path fill-rule="evenodd" clip-rule="evenodd" d="M13.6449 50.8539C13.6449 51.6038 13.037 52.2116 12.2872 52.2116H1.3577C0.607862 52.2116 0 51.6038 0 50.8539V42.8775H13.6449V50.8539ZM5.83952 44.3338C5.45512 44.1274 4.98954 44.4059 4.98954 44.8422V48.3801C4.98954 48.8164 5.45512 49.0949 5.83952 48.8885L9.13409 47.1195C9.5395 46.9019 9.5395 46.3205 9.13409 46.1028L5.83952 44.3338Z" fill="url(#paint3_linear_82_49)"/>
<path d="M4.69655 41.6556H0V39.8567C0 39.1069 0.607862 38.499 1.3577 38.499H1.55807L4.69655 41.6556Z" fill="url(#paint4_linear_82_49)"/>
<path d="M5.62944 38.499L8.76792 41.6556H6.52454L3.38605 38.499H5.62944Z" fill="url(#paint5_linear_82_49)"/>
<path d="M12.2872 38.499C13.037 38.499 13.6449 39.1069 13.6449 39.8567V41.6556H10.5959L7.45742 38.499H12.2872Z" fill="url(#paint6_linear_82_49)"/>
<path fill-rule="evenodd" clip-rule="evenodd" d="M4.98954 44.8422C4.98954 44.4059 5.45512 44.1274 5.83952 44.3338L9.13409 46.1028C9.5395 46.3205 9.5395 46.9019 9.13409 47.1195L5.83952 48.8885C5.45512 49.0949 4.98954 48.8164 4.98954 48.3801V44.8422Z" fill="#C26FFA"/>
<path d="M51.2937 33.7205C51.6841 33.6648 52.0333 33.9674 52.0333 34.3614V44.6645H52.0329C52.0331 44.6792 52.0333 44.6939 52.0333 44.7086C52.0333 46.2119 50.8134 47.4305 49.3085 47.4305C47.8037 47.4305 46.5838 46.2119 46.5838 44.7086C46.5838 43.2054 47.8037 41.9867 49.3085 41.9867C49.8079 41.9867 50.2758 42.121 50.6783 42.3552V37.8892L42.5482 39.0809V46.0769H42.5481C42.5402 47.5734 41.3233 48.7841 39.8234 48.7841C38.3186 48.7841 37.0986 47.5655 37.0986 46.0622C37.0986 44.559 38.3186 43.3403 39.8234 43.3403C40.3228 43.3403 40.7907 43.4746 41.1931 43.7088V35.7215C41.1932 35.3993 41.4304 35.1261 41.7497 35.0806L51.2937 33.7205Z" fill="url(#paint7_linear_82_49)"/>
<path fill-rule="evenodd" clip-rule="evenodd" d="M24.9481 37.2104C27.5198 37.2104 29.8306 36.0931 31.4216 34.3175C31.6478 34.065 31.8595 33.7992 32.0554 33.5213C33.052 32.1074 33.6373 30.3826 33.6373 28.5212C33.6373 26.6695 33.0581 24.9531 32.071 23.5433C31.8761 23.2649 31.6652 22.9985 31.4398 22.7453C29.8483 20.9579 27.5297 19.832 24.9481 19.832C22.3664 19.832 20.0478 20.9579 18.4563 22.7453C18.2309 22.9985 18.02 23.2649 17.8251 23.5433C16.838 24.9531 16.2588 26.6695 16.2588 28.5212C16.2588 30.3826 16.8441 32.1074 17.8407 33.5213C18.0366 33.7992 18.2483 34.065 18.4745 34.3175C20.0655 36.0931 22.3763 37.2104 24.9481 37.2104ZM29.522 27.9951C29.4879 26.9103 29.3487 25.8792 29.1237 24.9376C29.8999 24.7129 30.604 24.4274 31.2129 24.0934C32.0036 25.2102 32.5032 26.5475 32.6013 27.9951H29.522ZM29.5231 29.0134H32.6035C32.5104 30.4845 32.0025 31.8431 31.1955 32.9734C30.5886 32.6424 29.8879 32.3595 29.116 32.1366C29.348 31.1767 29.4904 30.1228 29.5231 29.0134ZM24.4813 36.1138C23.8809 35.916 23.2091 35.329 22.6086 34.1904C22.4011 33.7969 22.2135 33.3556 22.0509 32.874C22.8052 32.7222 23.6218 32.6267 24.4813 32.6012V36.1138ZM27.2875 22.852C26.7151 21.7667 26.078 21.1826 25.4996 20.959V24.4724C26.3321 24.4431 27.1234 24.3482 27.8559 24.2001C27.6909 23.7062 27.4995 23.2541 27.2875 22.852ZM24.4813 20.9286V24.4752C23.6178 24.4495 22.7975 24.3533 22.0402 24.2001C22.2052 23.7062 22.3966 23.2541 22.6086 22.852C23.2091 21.7134 23.8809 21.1264 24.4813 20.9286ZM28.1352 25.1823C27.3109 25.3538 26.4249 25.4607 25.4996 25.4913V27.9951H28.5032C28.4694 26.9871 28.3394 26.039 28.1352 25.1823ZM28.1274 31.8924C28.3384 31.0177 28.4719 30.0467 28.5043 29.0134H25.4996V31.5851C26.422 31.6155 27.3053 31.7219 28.1274 31.8924ZM24.4813 31.5825V29.0134H21.3918C21.4242 30.0467 21.5577 31.0177 21.7687 31.8924C22.616 31.7167 23.5283 31.6091 24.4813 31.5825ZM24.4813 27.9951V25.4939C23.5254 25.4672 22.6104 25.359 21.7609 25.1823C21.5567 26.039 21.4267 26.9871 21.3929 27.9951H24.4813ZM20.7801 32.1366C20.5481 31.1767 20.4057 30.1228 20.373 29.0134H17.2926C17.3858 30.4845 17.8936 31.8431 18.7006 32.9734C19.3075 32.6424 20.0082 32.3595 20.7801 32.1366ZM20.7724 24.9376C20.5474 25.8791 20.4083 26.9103 20.3741 27.9951H17.2948C17.3929 26.5475 17.8925 25.2101 18.6832 24.0934C19.2922 24.4274 19.9962 24.7129 20.7724 24.9376ZM27.4801 35.7644C28.6555 35.3535 29.7004 34.6646 30.536 33.7765C30.0383 33.5218 29.4675 33.2982 28.8379 33.1161C28.4902 34.1722 28.0263 35.0764 27.4801 35.7644ZM27.2875 34.1904C27.495 33.7969 27.6826 33.3556 27.8452 32.874C27.1158 32.7272 26.328 32.633 25.4996 32.6039V36.0834C26.078 35.8598 26.7151 35.2757 27.2875 34.1904ZM21.0582 33.1161C20.4286 33.2982 19.8578 33.5217 19.3601 33.7765C20.1957 34.6646 21.2406 35.3535 22.416 35.7644C21.8698 35.0764 21.4059 34.1722 21.0582 33.1161ZM30.5575 23.2888C30.0574 23.5467 29.4826 23.7731 28.848 23.9573C28.4993 22.8879 28.0317 21.9727 27.4801 21.278C28.6656 21.6924 29.7184 22.3896 30.5575 23.2888ZM19.3386 23.2888C20.1777 22.3896 21.2305 21.6924 22.416 21.278C21.8644 21.9727 21.3968 22.8879 21.0481 23.9573C20.4134 23.7731 19.8387 23.5467 19.3386 23.2888Z" fill="#1070CA"/>
<g filter="url(#filter0_d_82_49)">
<path d="M72.5932 13.5491L70.3532 17.5491H68.1132L65.8732 13.5491V19.7891H62.9932V8.58906H66.0332L69.2332 14.5091L72.4332 8.58906H75.4732V19.7891H72.5932V13.5491ZM81.3195 17.6291C81.8848 17.6291 82.5248 17.5224 83.2395 17.3091V11.3091H86.0395V19.7891H83.5595L83.3995 18.9891C82.8981 19.3197 82.3808 19.5651 81.8475 19.7251C81.3248 19.8744 80.8821 19.9491 80.5195 19.9491H79.7995C79.0741 19.9491 78.4928 19.7304 78.0555 19.2931C77.6181 18.8557 77.3995 18.2744 77.3995 17.5491V11.3091H80.1995V17.0691C80.1995 17.2291 80.2528 17.3624 80.3595 17.4691C80.4661 17.5757 80.5995 17.6291 80.7595 17.6291H81.3195ZM92.1138 19.7891C91.3992 19.8957 90.7165 19.9491 90.0658 19.9491C89.4258 19.9491 88.8872 19.7304 88.4498 19.2931C88.0125 18.8557 87.7938 18.2744 87.7938 17.5491V8.58906H90.5938V17.1491C90.5938 17.3091 90.6472 17.4424 90.7538 17.5491C90.8605 17.6557 90.9938 17.7091 91.1538 17.7091H92.1138V19.7891ZM98.9988 19.7891C97.9642 19.8957 96.9508 19.9491 95.9588 19.9491C95.2335 19.9491 94.6522 19.7304 94.2148 19.2931C93.7775 18.8557 93.5588 18.2744 93.5588 17.5491V13.4691H92.5988V11.3091H93.5588L93.8788 9.38906H96.3588V11.3091H98.3588V13.4691H96.3588V17.1491C96.3588 17.3091 96.4122 17.4424 96.5188 17.5491C96.6255 17.6557 96.7588 17.7091 96.9188 17.7091H98.9988V19.7891ZM103.493 11.6291V19.7891H100.693V13.7891H99.4932V11.6291H103.493ZM100.693 8.42906H103.493V10.6691H100.693V8.42906ZM110.938 11.1491C111.802 11.1491 112.469 11.4691 112.938 12.1091C113.429 11.7784 113.957 11.5384 114.522 11.3891C115.098 11.2291 115.61 11.1491 116.058 11.1491H116.218C116.944 11.1491 117.525 11.3677 117.962 11.8051C118.4 12.2424 118.618 12.8237 118.618 13.5491V19.7891H115.818V14.0291C115.818 13.8691 115.765 13.7357 115.658 13.6291C115.552 13.5224 115.418 13.4691 115.258 13.4691H115.178C114.698 13.4691 114.085 13.5757 113.338 13.7891V19.7891H110.538V14.0291C110.538 13.8691 110.485 13.7357 110.378 13.6291C110.272 13.5224 110.138 13.4691 109.978 13.4691H109.898C109.418 13.4691 108.805 13.5757 108.058 13.7891V19.7891H105.258V11.3091H107.738L107.898 12.1091C108.4 11.7784 108.912 11.5384 109.434 11.3891C109.968 11.2291 110.416 11.1491 110.778 11.1491H110.938ZM123.495 13.1491C123.068 13.1491 122.855 13.3624 122.855 13.7891V14.6691H125.575V13.7891C125.575 13.3624 125.362 13.1491 124.935 13.1491H123.495ZM128.055 19.6291C125.996 19.8424 124.13 19.9491 122.455 19.9491C121.73 19.9491 121.148 19.7304 120.711 19.2931C120.274 18.8557 120.055 18.2744 120.055 17.5491V13.7091C120.055 12.9091 120.279 12.2851 120.727 11.8371C121.186 11.3784 121.815 11.1491 122.615 11.1491H125.815C126.615 11.1491 127.239 11.3784 127.687 11.8371C128.146 12.2851 128.375 12.9091 128.375 13.7091V16.6691H122.855V17.3091C122.855 17.4691 122.908 17.6024 123.015 17.7091C123.122 17.8157 123.255 17.8691 123.415 17.8691C124.471 17.8691 126.018 17.7891 128.055 17.6291V19.6291ZM135.969 19.7891L135.809 18.9891C135.307 19.3197 134.79 19.5651 134.257 19.7251C133.734 19.8744 133.291 19.9491 132.929 19.9491H132.209C131.483 19.9491 130.902 19.7304 130.465 19.2931C130.027 18.8557 129.809 18.2744 129.809 17.5491V13.8691C129.809 13.0691 130.033 12.4451 130.481 11.9971C130.939 11.5384 131.569 11.3091 132.369 11.3091H135.649V8.58906H138.449V19.7891H135.969ZM133.729 17.6291C134.294 17.6291 134.934 17.5224 135.649 17.3091V13.4691H133.249C132.822 13.4691 132.609 13.6824 132.609 14.1091V17.0691C132.609 17.2291 132.662 17.3624 132.769 17.4691C132.875 17.5757 133.009 17.6291 133.169 17.6291H133.729ZM143.727 11.6291V19.7891H140.927V13.7891H139.727V11.6291H143.727ZM140.927 8.42906H143.727V10.6691H140.927V8.42906ZM148.852 17.7091C149.417 17.7091 150.057 17.6024 150.772 17.3891V16.4291H148.452C148.292 16.4291 148.159 16.4824 148.052 16.5891C147.945 16.6957 147.892 16.8291 147.892 16.9891V17.1491C147.892 17.3091 147.945 17.4424 148.052 17.5491C148.159 17.6557 148.292 17.7091 148.452 17.7091H148.852ZM145.892 11.4691C147.844 11.2557 149.604 11.1491 151.172 11.1491C151.897 11.1491 152.479 11.3677 152.916 11.8051C153.353 12.2424 153.572 12.8237 153.572 13.5491V19.7891H151.092L150.932 18.9891C150.431 19.3197 149.913 19.5651 149.38 19.7251C148.857 19.8744 148.415 19.9491 148.052 19.9491H147.492C146.767 19.9491 146.185 19.7304 145.748 19.2931C145.311 18.8557 145.092 18.2744 145.092 17.5491V16.8291C145.092 16.1037 145.311 15.5224 145.748 15.0851C146.185 14.6477 146.767 14.4291 147.492 14.4291H150.772V13.7891C150.772 13.6291 150.719 13.4957 150.612 13.3891C150.505 13.2824 150.372 13.2291 150.212 13.2291C149.519 13.2291 148.751 13.2611 147.908 13.3251C147.076 13.3891 146.404 13.4371 145.892 13.4691V11.4691ZM159.948 17.4691C162.871 17.6291 164.85 17.7091 165.884 17.7091C166.13 17.7091 166.322 17.6397 166.46 17.5011C166.61 17.3517 166.684 17.1544 166.684 16.9091V15.4691H163.004C161.884 15.4691 161.068 15.2184 160.556 14.7171C160.055 14.2051 159.804 13.3891 159.804 12.2691V11.7891C159.804 10.6691 160.055 9.8584 160.556 9.35706C161.068 8.84506 161.884 8.58906 163.004 8.58906H168.62V10.8291H163.644C163.004 10.8291 162.684 11.1491 162.684 11.7891V12.1091C162.684 12.7491 163.004 13.0691 163.644 13.0691H166.524C167.57 13.0691 168.338 13.3144 168.828 13.8051C169.319 14.2957 169.564 15.0637 169.564 16.1091V16.9091C169.564 17.9544 169.319 18.7224 168.828 19.2131C168.338 19.7037 167.57 19.9491 166.524 19.9491C165.98 19.9491 165.404 19.9384 164.796 19.9171L163.324 19.8531C162.236 19.7997 161.111 19.7251 159.948 19.6291V17.4691ZM173.243 22.6691C172.678 22.6691 171.985 22.6157 171.163 22.5091V20.4291H172.603C173.009 20.4291 173.27 20.3171 173.387 20.0931C173.515 19.8691 173.494 19.5544 173.323 19.1491L170.043 11.3091H173.003L175.003 16.7491L176.683 11.3091H179.643L176.443 20.1091C176.134 20.9517 175.734 21.5864 175.243 22.0131C174.753 22.4504 174.086 22.6691 173.243 22.6691ZM179.968 17.5491C182.134 17.7091 183.84 17.7891 185.088 17.7891C185.248 17.7891 185.382 17.7357 185.488 17.6291C185.595 17.5224 185.648 17.3891 185.648 17.2291V16.6691H182.208C181.483 16.6691 180.902 16.4504 180.464 16.0131C180.027 15.5757 179.808 14.9944 179.808 14.2691V13.7091C179.808 12.9837 180.027 12.4024 180.464 11.9651C180.902 11.5277 181.483 11.3091 182.208 11.3091H187.648V13.3891H183.168C183.008 13.3891 182.875 13.4424 182.768 13.5491C182.662 13.6557 182.608 13.7891 182.608 13.9491C182.608 14.1091 182.662 14.2424 182.768 14.3491C182.875 14.4557 183.008 14.5091 183.168 14.5091H186.048C186.774 14.5091 187.355 14.7277 187.792 15.1651C188.23 15.6024 188.448 16.1837 188.448 16.9091V17.5491C188.448 18.2744 188.23 18.8557 187.792 19.2931C187.355 19.7304 186.774 19.9491 186.048 19.9491C184.16 19.9491 182.134 19.8424 179.968 19.6291V17.5491ZM195.649 19.7891C194.615 19.8957 193.601 19.9491 192.609 19.9491C191.884 19.9491 191.303 19.7304 190.865 19.2931C190.428 18.8557 190.209 18.2744 190.209 17.5491V13.4691H189.249V11.3091H190.209L190.529 9.38906H193.009V11.3091H195.009V13.4691H193.009V17.1491C193.009 17.3091 193.063 17.4424 193.169 17.5491C193.276 17.6557 193.409 17.7091 193.569 17.7091H195.649V19.7891ZM200.06 13.1491C199.633 13.1491 199.42 13.3624 199.42 13.7891V14.6691H202.14V13.7891C202.14 13.3624 201.927 13.1491 201.5 13.1491H200.06ZM204.62 19.6291C202.561 19.8424 200.695 19.9491 199.02 19.9491C198.295 19.9491 197.713 19.7304 197.276 19.2931C196.839 18.8557 196.62 18.2744 196.62 17.5491V13.7091C196.62 12.9091 196.844 12.2851 197.292 11.8371C197.751 11.3784 198.38 11.1491 199.18 11.1491H202.38C203.18 11.1491 203.804 11.3784 204.252 11.8371C204.711 12.2851 204.94 12.9091 204.94 13.7091V16.6691H199.42V17.3091C199.42 17.4691 199.473 17.6024 199.58 17.7091C199.687 17.8157 199.82 17.8691 199.98 17.8691C201.036 17.8691 202.583 17.7891 204.62 17.6291V19.6291ZM212.214 11.1491C213.078 11.1491 213.744 11.4691 214.214 12.1091C214.704 11.7784 215.232 11.5384 215.798 11.3891C216.374 11.2291 216.886 11.1491 217.334 11.1491H217.494C218.219 11.1491 218.8 11.3677 219.238 11.8051C219.675 12.2424 219.894 12.8237 219.894 13.5491V19.7891H217.094V14.0291C217.094 13.8691 217.04 13.7357 216.934 13.6291C216.827 13.5224 216.694 13.4691 216.534 13.4691H216.454C215.974 13.4691 215.36 13.5757 214.614 13.7891V19.7891H211.814V14.0291C211.814 13.8691 211.76 13.7357 211.654 13.6291C211.547 13.5224 211.414 13.4691 211.254 13.4691H211.174C210.694 13.4691 210.08 13.5757 209.334 13.7891V19.7891H206.534V11.3091H209.014L209.174 12.1091C209.675 11.7784 210.187 11.5384 210.71 11.3891C211.243 11.2291 211.691 11.1491 212.054 11.1491H212.214ZM221.171 17.5491C223.336 17.7091 225.043 17.7891 226.291 17.7891C226.451 17.7891 226.584 17.7357 226.691 17.6291C226.797 17.5224 226.851 17.3891 226.851 17.2291V16.6691H223.411C222.685 16.6691 222.104 16.4504 221.667 16.0131C221.229 15.5757 221.011 14.9944 221.011 14.2691V13.7091C221.011 12.9837 221.229 12.4024 221.667 11.9651C222.104 11.5277 222.685 11.3091 223.411 11.3091H228.851V13.3891H224.371C224.211 13.3891 224.077 13.4424 223.971 13.5491C223.864 13.6557 223.811 13.7891 223.811 13.9491C223.811 14.1091 223.864 14.2424 223.971 14.3491C224.077 14.4557 224.211 14.5091 224.371 14.5091H227.251C227.976 14.5091 228.557 14.7277 228.995 15.1651C229.432 15.6024 229.651 16.1837 229.651 16.9091V17.5491C229.651 18.2744 229.432 18.8557 228.995 19.2931C228.557 19.7304 227.976 19.9491 227.251 19.9491C225.363 19.9491 223.336 19.8424 221.171 19.6291V17.5491ZM71.1212 36.2691V43.7891H66.8492C66.0812 43.7891 65.4465 43.7357 64.9452 43.6291C64.4545 43.5117 64.0652 43.3197 63.7772 43.0531C63.4999 42.7757 63.3079 42.3917 63.2012 41.9011C63.0945 41.4104 63.0412 40.7864 63.0412 40.0291C63.0412 39.2717 63.0945 38.6477 63.2012 38.1571C63.3079 37.6664 63.4999 37.2877 63.7772 37.0211C64.0652 36.7437 64.4545 36.5517 64.9452 36.4451C65.4465 36.3277 66.0812 36.2691 66.8492 36.2691H71.1212ZM68.6892 38.9891H66.2252C66.0225 38.9891 65.8679 39.0371 65.7612 39.1331C65.6652 39.2184 65.6172 39.3517 65.6172 39.5331V40.5251C65.6172 40.7064 65.6652 40.8451 65.7612 40.9411C65.8679 41.0264 66.0225 41.0691 66.2252 41.0691H68.6892V38.9891ZM65.9692 34.4291C65.8092 34.4291 65.6225 34.3544 65.4092 34.2051C65.2065 34.0451 65.0305 33.8637 64.8812 33.6611C64.7319 33.4477 64.6572 33.2664 64.6572 33.1171C64.6572 32.9464 64.7319 32.7597 64.8812 32.5571C65.0305 32.3544 65.2065 32.1784 65.4092 32.0291C65.6119 31.8797 65.7932 31.8051 65.9532 31.8051C66.1345 31.8051 66.3212 31.8797 66.5132 32.0291C66.7159 32.1784 66.8919 32.3544 67.0412 32.5571C67.1905 32.7491 67.2652 32.9357 67.2652 33.1171C67.2652 33.2664 67.1852 33.4477 67.0252 33.6611C66.8759 33.8637 66.6999 34.0451 66.4972 34.2051C66.3052 34.3544 66.1292 34.4291 65.9692 34.4291ZM68.9452 34.4291C68.7852 34.4291 68.5985 34.3544 68.3852 34.2051C68.1825 34.0451 68.0065 33.8637 67.8572 33.6611C67.7079 33.4477 67.6332 33.2664 67.6332 33.1171C67.6332 32.9464 67.7079 32.7597 67.8572 32.5571C68.0065 32.3544 68.1825 32.1784 68.3852 32.0291C68.5879 31.8797 68.7692 31.8051 68.9292 31.8051C69.1105 31.8051 69.2972 31.8797 69.4892 32.0291C69.6919 32.1784 69.8679 32.3544 70.0172 32.5571C70.1665 32.7491 70.2412 32.9357 70.2412 33.1171C70.2412 33.2664 70.1612 33.4477 70.0012 33.6611C69.8519 33.8637 69.6759 34.0451 69.4732 34.2051C69.2812 34.3544 69.1052 34.4291 68.9452 34.4291ZM72.7632 43.7891V41.0691H77.3392C77.2432 40.5891 77.1365 40.1944 77.0192 39.8851C76.9125 39.5651 76.7845 39.3197 76.6352 39.1491C76.4965 38.9677 76.3205 38.8397 76.1072 38.7651C75.9045 38.6904 75.6539 38.6531 75.3552 38.6531C75.0459 38.6531 74.7312 38.6744 74.4112 38.7171C74.0912 38.7491 73.7979 38.7971 73.5312 38.8611L72.8752 36.2211C73.2059 36.1357 73.5899 36.0664 74.0272 36.0131C74.4752 35.9597 74.9179 35.9331 75.3552 35.9331C75.9419 35.9331 76.4539 35.9864 76.8912 36.0931C77.3285 36.1891 77.7125 36.3597 78.0432 36.6051C78.3739 36.8397 78.6619 37.1757 78.9072 37.6131C79.1632 38.0397 79.3925 38.5891 79.5952 39.2611C79.8085 39.9224 80.0272 40.7277 80.2512 41.6771V43.7891H72.7632ZM88.4126 41.0691H90.1086V43.7891H88.4126V41.0691ZM81.5326 43.7891V41.0691H86.1086C86.0126 40.5891 85.9059 40.1944 85.7886 39.8851C85.6819 39.5651 85.5539 39.3197 85.4046 39.1491C85.2659 38.9677 85.0899 38.8397 84.8766 38.7651C84.6739 38.6904 84.4232 38.6531 84.1246 38.6531C83.8152 38.6531 83.5006 38.6744 83.1806 38.7171C82.8606 38.7491 82.5672 38.7971 82.3006 38.8611L81.6446 36.2211C81.9752 36.1357 82.3592 36.0664 82.7966 36.0131C83.2446 35.9597 83.6872 35.9331 84.1246 35.9331C84.7112 35.9331 85.2232 35.9864 85.6606 36.0931C86.0979 36.1891 86.4819 36.3597 86.8126 36.6051C87.1432 36.8397 87.4312 37.1757 87.6766 37.6131C87.9326 38.0397 88.1619 38.5891 88.3646 39.2611C88.5779 39.9224 88.7966 40.7277 89.0206 41.6771V43.7891H81.5326ZM98.7667 41.0691H101.711V43.7891H98.7667V41.0691ZM93.4547 38.7651C93.4547 39.3197 93.6254 39.7677 93.9667 40.1091C94.3187 40.4504 94.8787 40.6957 95.6467 40.8451C96.4254 40.9944 97.4654 41.0691 98.7667 41.0691V43.7891C97.7 43.7891 96.6974 43.6397 95.7587 43.3411C94.8307 43.0317 94.0094 42.6104 93.2947 42.0771C92.5907 41.5331 92.036 40.9091 91.6307 40.2051C91.236 39.5011 91.0387 38.7384 91.0387 37.9171C91.0387 37.4797 91.1987 37.1224 91.5187 36.8451C91.8494 36.5677 92.3507 36.3651 93.0227 36.2371C93.7054 36.1091 94.5907 36.0451 95.6787 36.0451C96.7774 36.0451 97.6627 36.1091 98.3347 36.2371C99.0174 36.3651 99.5134 36.5677 99.8227 36.8451C100.143 37.1224 100.303 37.4797 100.303 37.9171C100.303 38.7384 100.105 39.5064 99.7107 40.2211C99.316 40.9251 98.7667 41.5491 98.0627 42.0931C97.3587 42.6264 96.5374 43.0424 95.5987 43.3411C94.6707 43.6397 93.668 43.7891 92.5907 43.7891V41.0691C93.892 41.0691 94.9267 40.9944 95.6947 40.8451C96.4734 40.6957 97.0334 40.4504 97.3747 40.1091C97.716 39.7677 97.8867 39.3197 97.8867 38.7651H93.4547ZM89.6307 41.0691H92.5907V43.7891H89.6307V41.0691ZM106.06 41.0691H107.564V43.7891H101.228V41.0691H103.644V36.2691H106.06V41.0691ZM103.388 34.4291C103.228 34.4291 103.042 34.3544 102.828 34.2051C102.626 34.0451 102.45 33.8637 102.3 33.6611C102.151 33.4477 102.076 33.2664 102.076 33.1171C102.076 32.9464 102.151 32.7597 102.3 32.5571C102.45 32.3544 102.626 32.1784 102.828 32.0291C103.031 31.8797 103.212 31.8051 103.372 31.8051C103.554 31.8051 103.74 31.8797 103.932 32.0291C104.135 32.1784 104.311 32.3544 104.46 32.5571C104.61 32.7491 104.684 32.9357 104.684 33.1171C104.684 33.2664 104.604 33.4477 104.444 33.6611C104.295 33.8637 104.119 34.0451 103.916 34.2051C103.724 34.3544 103.548 34.4291 103.388 34.4291ZM106.364 34.4291C106.204 34.4291 106.018 34.3544 105.804 34.2051C105.602 34.0451 105.426 33.8637 105.276 33.6611C105.127 33.4477 105.052 33.2664 105.052 33.1171C105.052 32.9464 105.127 32.7597 105.276 32.5571C105.426 32.3544 105.602 32.1784 105.804 32.0291C106.007 31.8797 106.188 31.8051 106.348 31.8051C106.53 31.8051 106.716 31.8797 106.908 32.0291C107.111 32.1784 107.287 32.3544 107.436 32.5571C107.586 32.7491 107.66 32.9357 107.66 33.1171C107.66 33.2664 107.58 33.4477 107.42 33.6611C107.271 33.8637 107.095 34.0451 106.892 34.2051C106.7 34.3544 106.524 34.4291 106.364 34.4291ZM117.347 41.0691H118.835V43.7891H117.347V41.0691ZM114.035 36.0451C114.803 36.0451 115.427 36.1411 115.907 36.3331C116.398 36.5144 116.761 36.8077 116.995 37.2131C117.23 37.6077 117.347 38.1251 117.347 38.7651V43.7891H107.091V41.0691H114.931V38.8451C114.771 38.8131 114.595 38.7917 114.403 38.7811C114.211 38.7704 113.987 38.7651 113.731 38.7651C113.23 38.7651 112.718 38.8024 112.195 38.8771C111.673 38.9411 111.139 39.0424 110.595 39.1811L109.651 36.7811C110.11 36.6104 110.579 36.4717 111.059 36.3651C111.55 36.2477 112.041 36.1677 112.531 36.1251C113.033 36.0717 113.534 36.0451 114.035 36.0451ZM109.987 42.9891C109.667 42.6157 109.449 42.1677 109.331 41.6451C109.214 41.1117 109.155 40.4931 109.155 39.7891C109.155 39.2557 109.198 38.7597 109.283 38.3011C109.369 37.8317 109.491 37.3251 109.651 36.7811L112.163 37.3091C111.982 37.8104 111.838 38.2477 111.731 38.6211C111.625 38.9944 111.571 39.3837 111.571 39.7891C111.571 40.2051 111.587 40.5517 111.619 40.8291C111.651 41.0957 111.699 41.3304 111.763 41.5331C111.838 41.7357 111.939 41.9437 112.067 42.1571L109.987 42.9891ZM123.193 43.7891H118.361V41.0691H120.777V33.7091H123.193V43.7891ZM125.712 43.7891V33.7091H128.144V43.7891H125.712ZM145.295 41.0691H146.799V43.7891H145.295V41.0691ZM145.295 41.0691V43.7891H133.231V41.0691H145.295ZM142.879 43.7891V39.0051C142.505 38.8877 141.865 38.8291 140.959 38.8291C139.796 38.8291 138.916 39.0904 138.319 39.6131C137.721 40.1251 137.423 40.8984 137.423 41.9331H135.007V33.7091H137.423V38.3811C137.647 37.9331 137.983 37.5384 138.431 37.1971C138.889 36.8557 139.423 36.5891 140.031 36.3971C140.639 36.2051 141.289 36.1091 141.983 36.1091C142.836 36.1091 143.503 36.1997 143.983 36.3811C144.463 36.5517 144.799 36.8504 144.991 37.2771C145.193 37.6931 145.295 38.2744 145.295 39.0211V43.7891H142.879ZM146.313 43.7891V41.0691H148.729V36.2691H151.145V43.7891H146.313ZM150.553 32.7971L151.817 32.4611V33.5811L148.057 34.5891V33.4691L148.649 33.3091C148.617 33.1917 148.591 33.0744 148.569 32.9571C148.548 32.8291 148.537 32.6744 148.537 32.4931C148.537 31.9384 148.655 31.5011 148.889 31.1811C149.124 30.8504 149.455 30.6051 149.881 30.4451C150.308 30.2851 150.804 30.1784 151.369 30.1251V31.4211C151.103 31.4424 150.868 31.4797 150.665 31.5331C150.463 31.5864 150.239 31.6557 149.993 31.7411V32.4931C149.993 32.6531 150.036 32.7597 150.121 32.8131C150.207 32.8557 150.351 32.8504 150.553 32.7971ZM153.664 43.7891V33.7091H156.096V41.0691H157.584V43.7891H153.664ZM168.99 43.7891C168.19 43.7891 167.534 43.7304 167.022 43.6131C166.521 43.4851 166.126 43.2717 165.838 42.9731C165.561 42.6744 165.369 42.2637 165.262 41.7411C165.155 41.2184 165.102 40.5624 165.102 39.7731V37.7091H167.518V40.2211C167.518 40.5624 167.619 40.7917 167.822 40.9091C168.035 41.0157 168.329 41.0691 168.702 41.0691H170.526C170.579 40.8877 170.617 40.6851 170.638 40.4611C170.659 40.2264 170.67 39.9597 170.67 39.6611C170.67 39.1704 170.627 38.6744 170.542 38.1731C170.457 37.6717 170.345 37.1597 170.206 36.6371L172.622 36.2691C172.739 36.6104 172.83 36.9624 172.894 37.3251C172.969 37.6771 173.017 38.0397 173.038 38.4131C173.07 38.7757 173.086 39.1437 173.086 39.5171C173.086 40.6371 172.937 41.5064 172.638 42.1251C172.339 42.7437 171.881 43.1757 171.262 43.4211C170.654 43.6664 169.897 43.7891 168.99 43.7891ZM163.198 43.7891H161.934V41.0691H163.902C164.286 41.0691 164.579 41.0157 164.782 40.9091C164.995 40.7917 165.102 40.5624 165.102 40.2211V37.7091H167.518V39.7731C167.518 40.5624 167.459 41.2184 167.342 41.7411C167.235 42.2637 167.027 42.6744 166.718 42.9731C166.419 43.2717 165.987 43.4851 165.422 43.6131C164.857 43.7304 164.115 43.7891 163.198 43.7891ZM161.934 43.7891H157.102V41.0691H159.518V37.7091H161.934V43.7891ZM181.996 41.0691H184.7V43.7891H181.996V41.0691ZM178.588 43.7891C177.991 43.7891 177.473 43.7144 177.036 43.5651C176.609 43.4157 176.257 43.1811 175.98 42.8611C175.713 42.5411 175.516 42.1304 175.388 41.6291C175.26 41.1171 175.196 40.5091 175.196 39.8051C175.196 39.1437 175.271 38.5731 175.42 38.0931C175.58 37.6131 175.825 37.2237 176.156 36.9251C176.487 36.6264 176.908 36.4077 177.42 36.2691C177.943 36.1197 178.556 36.0451 179.26 36.0451C180.071 36.0451 180.764 36.0931 181.34 36.1891C181.927 36.2744 182.497 36.4344 183.052 36.6691V41.0691L181.708 43.7891H178.588ZM179.996 41.0691C180.231 41.0691 180.396 41.0264 180.492 40.9411C180.588 40.8451 180.636 40.6744 180.636 40.4291V38.7651H178.684C178.332 38.7651 178.092 38.8077 177.964 38.8931C177.836 38.9784 177.772 39.1491 177.772 39.4051V41.0691H179.996ZM179.5 48.2851L177.868 46.4931C178.284 46.1517 178.657 45.7624 178.988 45.3251C179.329 44.8877 179.623 44.4291 179.868 43.9491C180.113 43.4691 180.3 42.9837 180.428 42.4931C180.567 42.0024 180.636 41.5277 180.636 41.0691H183.052C183.052 41.6984 182.967 42.3384 182.796 42.9891C182.625 43.6397 182.385 44.2744 182.076 44.8931C181.767 45.5224 181.393 46.1251 180.956 46.7011C180.519 47.2771 180.033 47.8051 179.5 48.2851ZM189.051 43.7891H184.219V41.0691H186.635V33.7091H189.051V43.7891ZM191.57 43.7891V33.7091H194.002V43.7891H191.57ZM208.705 41.0691H210.193V43.7891H208.705V41.0691ZM199.345 49.1331C199.227 48.7384 199.126 48.3331 199.041 47.9171C198.955 47.5011 198.891 47.0744 198.849 46.6371C198.817 46.1997 198.801 45.7624 198.801 45.3251C198.801 44.3331 198.897 43.5277 199.089 42.9091C199.281 42.2797 199.574 41.8157 199.969 41.5171C200.363 41.2184 200.875 41.0691 201.505 41.0691H206.289V38.8451C206.033 38.7917 205.633 38.7651 205.089 38.7651C204.609 38.7651 204.107 38.7971 203.585 38.8611C203.073 38.9251 202.529 39.0317 201.953 39.1811L201.009 36.7811C201.691 36.5357 202.401 36.3544 203.137 36.2371C203.873 36.1091 204.625 36.0451 205.393 36.0451C206.161 36.0451 206.785 36.1411 207.265 36.3331C207.755 36.5144 208.118 36.8077 208.353 37.2131C208.587 37.6077 208.705 38.1251 208.705 38.7651V43.7891H201.441C201.366 44.0557 201.313 44.3544 201.281 44.6851C201.249 45.0264 201.233 45.4371 201.233 45.9171C201.233 46.2797 201.265 46.6691 201.329 47.0851C201.403 47.5117 201.537 48.0664 201.729 48.7491L199.345 49.1331ZM201.345 42.9891C201.025 42.6157 200.806 42.1677 200.689 41.6451C200.571 41.1117 200.513 40.4931 200.513 39.7891C200.513 39.2557 200.555 38.7597 200.641 38.3011C200.726 37.8317 200.849 37.3251 201.009 36.7811L203.521 37.3091C203.339 37.8104 203.195 38.2477 203.089 38.6211C202.982 38.9944 202.929 39.3837 202.929 39.7891C202.929 40.2051 202.945 40.5517 202.977 40.8291C203.009 41.0957 203.057 41.3304 203.121 41.5331C203.195 41.7357 203.297 41.9437 203.425 42.1571L201.345 42.9891ZM223.926 41.0691V43.7891H209.718V41.0691H223.926ZM220.006 43.7891V39.0051C219.633 38.8877 218.993 38.8291 218.086 38.8291C216.924 38.8291 216.044 39.0904 215.446 39.6131C214.849 40.1251 214.55 40.8984 214.55 41.9331H212.134V33.7091H214.55V38.3811C214.774 37.9331 215.11 37.5384 215.558 37.1971C216.017 36.8557 216.55 36.5891 217.158 36.3971C217.766 36.2051 218.417 36.1091 219.11 36.1091C219.964 36.1091 220.63 36.1997 221.11 36.3811C221.59 36.5517 221.926 36.8504 222.118 37.2771C222.321 37.6931 222.422 38.2744 222.422 39.0211V43.7891H220.006ZM219.046 34.4291C218.886 34.4291 218.7 34.3544 218.486 34.2051C218.284 34.0451 218.108 33.8637 217.958 33.6611C217.809 33.4477 217.734 33.2664 217.734 33.1171C217.734 32.9464 217.809 32.7597 217.958 32.5571C218.108 32.3544 218.284 32.1784 218.486 32.0291C218.689 31.8797 218.87 31.8051 219.03 31.8051C219.212 31.8051 219.398 31.8797 219.59 32.0291C219.793 32.1784 219.969 32.3544 220.118 32.5571C220.268 32.7491 220.342 32.9357 220.342 33.1171C220.342 33.2664 220.262 33.4477 220.102 33.6611C219.953 33.8637 219.777 34.0451 219.574 34.2051C219.382 34.3544 219.206 34.4291 219.046 34.4291ZM223.441 43.7891V41.0691H225.857V36.2691H228.273V43.7891H223.441ZM227.073 34.4291C226.913 34.4291 226.726 34.3544 226.513 34.2051C226.31 34.0451 226.134 33.8637 225.985 33.6611C225.835 33.4477 225.761 33.2664 225.761 33.1171C225.761 32.9464 225.835 32.7597 225.985 32.5571C226.134 32.3544 226.31 32.1784 226.513 32.0291C226.715 31.8797 226.897 31.8051 227.057 31.8051C227.238 31.8051 227.425 31.8797 227.617 32.0291C227.819 32.1784 227.995 32.3544 228.145 32.5571C228.294 32.7491 228.369 32.9357 228.369 33.1171C228.369 33.2664 228.289 33.4477 228.129 33.6611C227.979 33.8637 227.803 34.0451 227.601 34.2051C227.409 34.3544 227.233 34.4291 227.073 34.4291Z" fill="#023487"/>
</g>
<defs>
<filter id="filter0_d_82_49" x="62.1932" y="8.42871" width="170.257" height="44.5041" filterUnits="userSpaceOnUse" color-interpolation-filters="sRGB">
<feFlood flood-opacity="0" result="BackgroundImageFix"/>
<feColorMatrix in="SourceAlpha" type="matrix" values="0 0 0 0 0 0 0 0 0 0 0 0 0 0 0 0 0 0 127 0" result="hardAlpha"/>
<feOffset dx="1" dy="2"/>
<feGaussianBlur stdDeviation="0.9"/>
<feComposite in2="hardAlpha" operator="out"/>
<feColorMatrix type="matrix" values="0 0 0 0 0 0 0 0 0 0.130133 0 0 0 0 0.346154 0 0 0 0.35 0"/>
<feBlend mode="normal" in2="BackgroundImageFix" result="effect1_dropShadow_82_49"/>
<feBlend mode="normal" in="SourceGraphic" in2="effect1_dropShadow_82_49" result="shape"/>
</filter>
<linearGradient id="paint0_linear_82_49" x1="6.82169" y1="7.4082" x2="6.82169" y2="22.9537" gradientUnits="userSpaceOnUse">
<stop stop-color="#666666"/>
<stop offset="1"/>
</linearGradient>
<linearGradient id="paint1_linear_82_49" x1="42.325" y1="0.789062" x2="42.325" y2="13.8228" gradientUnits="userSpaceOnUse">
<stop stop-color="#FFCC00"/>
<stop offset="1" stop-color="#FF6A00"/>
</linearGradient>
<linearGradient id="paint2_linear_82_49" x1="42.325" y1="0.789062" x2="42.325" y2="13.8228" gradientUnits="userSpaceOnUse">
<stop stop-color="#424CFF"/>
<stop offset="1" stop-color="#282D99"/>
</linearGradient>
<linearGradient id="paint3_linear_82_49" x1="6.82243" y1="38.499" x2="6.82243" y2="52.2116" gradientUnits="userSpaceOnUse">
<stop stop-color="#8100D7"/>
<stop offset="1" stop-color="#3F0069"/>
</linearGradient>
<linearGradient id="paint4_linear_82_49" x1="6.82243" y1="38.499" x2="6.82243" y2="52.2116" gradientUnits="userSpaceOnUse">
<stop stop-color="#3A0060"/>
<stop offset="0.331731" stop-color="#1A002B"/>
</linearGradient>
<linearGradient id="paint5_linear_82_49" x1="6.82243" y1="38.499" x2="6.82243" y2="52.2116" gradientUnits="userSpaceOnUse">
<stop stop-color="#3A0060"/>
<stop offset="0.331731" stop-color="#1A002B"/>
</linearGradient>
<linearGradient id="paint6_linear_82_49" x1="6.82243" y1="38.499" x2="6.82243" y2="52.2116" gradientUnits="userSpaceOnUse">
<stop stop-color="#3A0060"/>
<stop offset="0.331731" stop-color="#1A002B"/>
</linearGradient>
<linearGradient id="paint7_linear_82_49" x1="44.566" y1="33.7139" x2="44.566" y2="48.7841" gradientUnits="userSpaceOnUse">
<stop stop-color="#FF0037"/>
<stop offset="1" stop-color="#9E0022" stop-opacity="0.58"/>
</linearGradient>
</defs>
</svg>
